
<svg xmlns="http://www.w3.org/2000/svg" width="34.001" height="58.104" viewBox="0 0 34.001 58.104">
  <path id="Path_4" data-name="Path 4" d="M17,56.786c.145,0,0,.142,0-.028.262-9.355,2.843-16.007,8.088-23.85.4-.6.812-1.2,1.355-1.988l.662-.956.645-.936c1.015-1.48,1.713-2.548,2.328-3.591a16.289,16.289,0,0,0,2.708-8.52A15.347,15.347,0,0,0,17,1.214a15.347,15.347,0,0,0-15.786,15.7,16.289,16.289,0,0,0,2.708,8.52c.615,1.043,1.313,2.112,2.328,3.591l.645.936.662.956c.543.786.953,1.386,1.355,1.987C14.157,40.751,16.738,47.4,17,56.792,17,56.924,16.862,56.786,17,56.786Z" transform="translate(0 0.001)" fill="white" stroke="#6fccda" stroke-width="2.429" fill-rule="evenodd"/>
</svg>