
      <svg xmlns="http://www.w3.org/2000/svg" width="32" height="58" viewBox="0 0 32 58">
          <defs>
              <radialGradient id="a" fx="50%" fy="50%" gradientTransform="matrix(0 -1 1.12837 0 -.064 1)">
                  <stop offset="0%" stop-opacity=".577"/>
                  <stop offset="100%" stop-color="#B5B5B5" stop-opacity="0"/>
              </radialGradient>
          </defs>
          <g fill="none" fill-rule="evenodd">
              <ellipse cx="16" cy="55.68" fill="url(#a)" fill-rule="nonzero" rx="11.429" ry="2.32"/>
              <path fill="#F26A57" d="M16 55.68c.766 0 1.151-.387 1.143-1.16C17.714 33.64 32 27.84 32 16.24 32 6.96 25.143 0 16 0S0 6.96 0 16.24c0 11.6 14.286 17.4 14.857 38.28 0 .766.377 1.16 1.143 1.16z"/>
              <path stroke="#F26A57" d="M16 55.18c.49 0 .648-.16.643-.674.242-8.836 2.627-15.107 7.501-22.541.377-.574.76-1.148 1.27-1.9l.622-.917.609-.9c.963-1.432 1.627-2.47 2.215-3.487 1.782-3.08 2.64-5.681 2.64-8.521C31.5 7.234 24.865.5 16 .5S.5 7.234.5 16.24c0 2.84.858 5.44 2.64 8.521.588 1.018 1.252 2.055 2.215 3.487l.609.9.622.918c.51.751.893 1.325 1.27 1.899 4.874 7.434 7.26 13.705 7.501 22.555 0 .497.16.66.643.66z" style="mix-blend-mode:multiply"/>
              <path fill="#FFF" d="M23.7 21.144c-1.308-.26-2.332-.502-3.053-.72.977-.834 1.546-2.09 1.549-3.416a3.353 3.353 0 0 0-.783-2.24 2.83 2.83 0 0 0-2.105-.955 2.83 2.83 0 0 0-2.106.956 3.45 3.45 0 0 0-.805 2.286 4.474 4.474 0 0 0 1.236 3.256c-1.017.473-2.08.824-3.17 1.046-.359.041-.728.065-1.12.07-1.973-.059-3.31-.679-4.076-1.89-.665-1.07-1.012-2.842-1.006-5.205v-2.955c1.308.26 2.332.497 3.047.721-.975.835-1.544 2.089-1.549 3.415-.019.823.261 1.623.783 2.234a2.613 2.613 0 0 0 2.086.945c.81.028 1.59-.324 2.13-.963a3.45 3.45 0 0 0 .806-2.287 4.462 4.462 0 0 0-1.236-3.255 13.767 13.767 0 0 1 3.17-1.04 9.708 9.708 0 0 1 1.119-.07c1.98.058 3.31.673 4.077 1.884.699 1.081 1.045 2.848 1.04 5.246v2.955m-4.569-1.454c-.853-.55-1.358-1.544-1.32-2.6-.014-.47.14-.93.43-1.287a1.33 1.33 0 0 1 1.086-.48 1.25 1.25 0 0 1 1.023.474c.275.335.42.767.408 1.21 0 1.064-.559 1.939-1.627 2.683m-6.336-6.913c.854.548 1.361 1.54 1.326 2.594.017.472-.137.933-.43 1.288a1.303 1.303 0 0 1-1.086.479c-.39.02-.769-.152-1.023-.467a1.835 1.835 0 0 1-.408-1.217c0-1.058.559-1.938 1.621-2.677m11.017-.791c-1.09-1.631-2.942-2.464-5.509-2.47a10.243 10.243 0 0 0-4.613 1.052c-.313.136-.615.283-.911.443a9.652 9.652 0 0 0-2.617-.774 13.015 13.015 0 0 1-2.6-.65l-.739-.325v5.028c0 2.806.42 4.821 1.309 6.168 1.118 1.637 2.941 2.47 5.508 2.47 1.595.02 3.173-.34 4.619-1.052.307-.13.615-.277.906-.431.837.375 1.716.633 2.617.768.883.125 1.752.343 2.594.65l.733.319v-5.028c0-2.8-.42-4.821-1.303-6.168"/>
          </g>
      </svg>
    